<svg xmlns="http://www.w3.org/2000/svg" xmlns:xlink="http://www.w3.org/1999/xlink" id="Layer_1" x="0px" y="0px" width="595.28px" height="595.28px" viewBox="0 0 595.28 595.28" xml:space="preserve"><path id="color_x5F_7" fill="#5c8585" d="M268.02,365.584c-0.988-19.625-2.159-37.575-3.255-41.203 c-0.074-0.244-0.147-0.43-0.22-0.54c6.149-1.684,13.006-2.97,19.192-3.706l0.099-4.093l4.762,0.114l2.439,0.059l10.379,0.248 c0.313,0.659,0.641,1.314,1.002,1.957c1.444,0.593,3.311,1.111,5.475,1.564l-0.466,19.511c-2.959,2.338-10.607,13.27-10.417,20.263 c-8.224,2.389-19.024,6.633-28.736,10.985C268.19,369.016,268.105,367.295,268.02,365.584z M333.605,322.522 c-1.251,0.011-2.609-0.014-3.335-0.143c-3.402-0.165-6.818-0.392-10.078-0.689c-1.956-0.179-3.855-0.383-5.661-0.615l-0.514,21.468 c1.487,1.836,2.953,4.265,4.162,7.068c2.988,6.932,3.294,13.467,0.68,14.592c-1.539,0.663-7.641,2.285-13.002,2.089 c-8.762,9.28-28.153,23.774-36.418,30.98c0.304,7.52,0.549,14.079,0.716,18.705c0.16,4.442,0.249,7.103,0.249,7.103l0.43,0.009 c0,0-2.462,4.172-5.298,11.02h67.921c-2.425-6.198-4.719-9.639-4.719-9.639s0.249-4.787,0.664-12.284 c0.929-16.771,2.688-47.113,4.344-67.853c0.928-11.618,1.822-20.213,2.522-21.721c0.028-0.062,0.057-0.124,0.084-0.162h-0.001 C336.346,322.45,335.049,322.51,333.605,322.522z M476.997,338.779c-2.327-2.328-5.753-2.883-8.609-1.674l-18.365-18.364 c-0.043-0.921-0.242-1.834-0.608-2.696l17.965-17.964c2.855,1.21,6.281,0.655,8.609-1.674c3.065-3.064,3.065-8.033,0-11.097 c-3.064-3.065-8.032-3.065-11.097-0.001c-2.329,2.328-2.884,5.754-1.674,8.61l-17.966,17.965c-2.856-1.209-6.281-0.654-8.609,1.674 c-3.064,3.063-3.064,8.031,0.001,11.097c3.043,3.042,7.961,3.06,11.03,0.059l16.553,16.553c-1.21,2.856-0.655,6.282,1.673,8.61 c3.064,3.064,8.033,3.064,11.098,0C480.063,346.813,480.063,341.844,476.997,338.779z M136.451,207.413 c-4.805,0-8.773,3.561-9.418,8.186c-0.648-4.625-4.617-8.186-9.42-8.186c-5.254,0-9.514,4.259-9.514,9.513 c0,4.948,16.873,19.486,18.838,21.162c0,0.102,0,0.16,0,0.16s0.035-0.029,0.096-0.08c0.059,0.051,0.094,0.08,0.094,0.08 s0-0.059,0-0.16c1.964-1.675,18.837-16.214,18.837-21.162C145.964,211.672,141.705,207.413,136.451,207.413z"></path><path id="color_x5F_6" fill="#f9a026" d="M448.861,204.687c11.526-0.133,20.935,5.273,21.014,12.075 c0.068,5.981-7.096,11.047-16.66,12.276l3.211,8.411l-9.404-8.167c-10.536-0.506-18.815-5.658-18.889-12.037 C428.055,210.443,437.336,204.82,448.861,204.687z M462.684,237.679v5.772c0,6.316,5.118,11.436,11.435,11.436h4.839l-4.4,10.563 l10.563-10.563h4.453c6.314,0,11.435-5.12,11.435-11.436v-5.772c0-6.315-5.12-11.435-11.435-11.435h-15.454 C467.802,226.244,462.684,231.364,462.684,237.679z M127.033,403.25l-7.601-15.401l-7.601,15.401l-16.996,2.47l12.298,11.987 l-2.903,16.929l15.202-7.992l15.202,7.992l-2.903-16.929l12.298-11.987L127.033,403.25z"></path><path id="color_x5F_5" fill="#ffd2bb" d="M402.052,334.704c-0.702,3.872-2.946,7.064-5.966,9.071 c-1.326,1.976-8.047,2.963-16.859,3.265c-2.281,0.078-4.705,0.109-7.21,0.101c-13.272-0.048-28.866-1.241-38.271-2.808 c0.928-11.618,1.822-20.213,2.522-21.721c2.114,0.062,4.177,0.103,6.15,0.123l0.059,0.003c2.465,1.558,10.726,2.743,20.465,5.2 c3.866,0.976,7.964,2.15,12.025,3.63c0.03-0.579,0.088-1.161,0.192-1.746c0.881-4.849-1.667-29.391-1.576-45.793 c-1.203-0.193-2.484-0.459-3.879-0.795c-1.81-0.438-4.693-1.915-7.577-3.801c-0.624-0.408-1.247-0.829-1.86-1.27 c-4.715-3.389-8.799-7.563-7.347-9.699c2.004-2.935,7.17,6.205,9.253,2.584c1.246-2.161-1.957-7.815-4.534-12.826 c-2.21-4.301-3.961-8.125-2.039-8.857c3.013-1.149,5.326,5.161,7.49,9.328c1.218,2.344,2.388,4.013,3.608,3.287 c1.778-1.058-1.147-6.128-3.608-10.958c-2.229-4.375-4.077-8.554-1.694-9.372c0.371-0.127,0.728-0.126,1.075-0.04 c4.346,1.087,6.965,17.581,10.313,16.13c3.615-1.57-7.423-15.667-2.918-17.366c4.563-1.721,7.236,15.461,9.359,17.761 c0.215,0.232,0.424,0.316,0.628,0.209c1.866-0.972,0.613-4.337-0.628-7.674c-1.241-3.338-2.47-6.648-0.551-7.506 c0.179-0.08,0.363-0.094,0.551-0.079c2.188,0.176,4.878,6.591,6.838,13.919c1.881,7.036,2.766,14.62,1.168,18.916 c-0.659,1.77-1.374,3.203-2.17,4.364C393.303,297.606,403.043,329.242,402.052,334.704z M314.018,342.543 c-2.188-2.705-4.429-4.113-5.985-3.443c-0.166,0.073-0.376,0.216-0.605,0.396c-2.959,2.338-10.607,13.27-10.417,20.263 c-8.224,2.389-19.024,6.633-28.736,10.985c-1.577,0.708-3.123,1.416-4.624,2.121c1.487-2.401,2.954-4.849,4.37-7.28 c-0.988-19.625-2.159-37.575-3.255-41.203c-6.197,1.187-10.954,6.607-11.111,13.234c-0.144,5.963-11.034,39.181-12.164,53.459 c-0.033,0.338-0.054,0.676-0.062,1.015c-0.117,2.415,0.106,4.167,0.788,4.986c0.847,2.381,2.352,4.553,4.497,6.2 c5.985,4.599,14.604,3.422,19.248-2.624c0.584-0.758,1.81-1.922,3.479-3.379c8.265-7.206,27.656-21.7,36.418-30.98 c5.361,0.196,11.463-1.426,13.002-2.089c2.614-1.125,2.309-7.66-0.68-14.592C316.971,346.808,315.505,344.379,314.018,342.543z  M333.605,322.522c-1.107-0.042-2.219-0.088-3.335-0.143C330.996,322.509,332.354,322.533,333.605,322.522z M325.291,277.916 c1.326,2.42,0.439,5.456-1.979,6.783l-2.139,1.174l-2.044,1.122l0.086,1.039c-7.896,1.961-14.983,4.211-18.723,6.505 c-1.433,3.938-2.055,8.007-1.729,12.162c0.285,3.413,1.199,6.675,2.652,9.762l-10.379-0.247l-2.439-0.059l0.396-4.874 c-0.025-0.022-0.052-0.047-0.076-0.07l1.248-5.83c-0.585-0.417-1.149-0.858-1.684-1.335c-3.67-3.283-6.152-7.879-6.551-12.708 l0.031-1.109l-4.881-1.711c-0.606-0.211-1.561-1.333-2.267-2.646c-0.688-1.281-1.141-2.743-0.799-3.719 c0.911-2.603,3.762-3.975,6.365-3.063l1.883,0.66l0.043-1.466c4.938,0.099,11.53-2.036,17.614-6.439 c0.639-0.462,1.236-0.924,1.816-1.386l6.608-6.664l7.216,13.76l2.941-1.616C320.928,274.613,323.963,275.498,325.291,277.916z  M307.343,280.686c0.08,1.34,0.807,2.382,1.634,2.323c0.815-0.059,1.428-1.19,1.35-2.533c-0.078-1.337-0.807-2.38-1.635-2.322 C307.87,278.212,307.263,279.345,307.343,280.686z M289.443,282.201c0.142,1.338,0.93,2.355,1.745,2.279 c0.823-0.079,1.37-1.226,1.23-2.56c-0.142-1.335-0.929-2.354-1.75-2.277C289.844,279.723,289.298,280.869,289.443,282.201z"></path><path id="color_x5F_4" fill="#00cec9" d="M371.988,347.617c-1.665,17.732-20.433,23.756-14.357,29.355 c6.074,5.601,5.179,12.437-2.375,21.538c-4.313,5.194-13.847,10.108-25.854,13.675c0.929-16.771,2.688-47.113,4.344-67.853 c9.404,1.566,24.998,2.76,38.271,2.808C372.005,347.301,372.004,347.455,371.988,347.617z M362.942,327.938 c-2.337-1.989-4.926-3.759-7.53-5.392c-3.11,0.164-7.717,0.245-12.993,0.188l0.059,0.003 C344.942,324.296,353.203,325.481,362.942,327.938z M268.273,370.743c-0.083-1.728-0.168-3.448-0.254-5.159 c-1.416,2.432-2.883,4.879-4.37,7.28C265.15,372.159,266.696,371.451,268.273,370.743z M301.416,316.463L301.416,316.463 l-10.379-0.248L301.416,316.463z M327.086,278.198c-7.965-4.371-7.117-17.827-7.649-18.72l-0.103-1.238 c-0.445-5.41-3.224-10.559-7.339-14.237c-4.11-3.675-9.556-5.881-15.321-5.405c-15.164,1.254-19.732,15.421-19.136,23.028 c-1.938,0.384-4.091,0.705-6.516,0.932c-14.414,1.351-12.324,13.755-2.787,16.771c-5.464,2.072-11.723,2.169-14.808,6.543 c-1.386,1.965-2.132,4.792-1.875,9.052c0.889,14.749,10.035,13.792-0.579,20.334s-30.006,12.745-29.188,30.537 c0.815,17.792,19.275,24.705,12.94,30.007c-6.335,5.305-5.838,12.229,1.347,21.627c7.727,10.106,20.11,15.888,34.083,18.548 c-0.167-4.626-0.412-11.186-0.716-18.705c-1.669,1.457-2.895,2.621-3.479,3.379c-4.645,6.046-13.263,7.223-19.248,2.624 c-2.146-1.647-3.65-3.819-4.497-6.2c-0.682-0.819-0.905-2.571-0.788-4.986c0.008-0.339,0.028-0.677,0.062-1.015 c1.13-14.278,12.021-47.496,12.164-53.459c0.157-6.627,4.915-12.048,11.111-13.234c-0.074-0.244-0.147-0.43-0.22-0.54 c6.149-1.684,13.006-2.97,19.192-3.706l0.099-4.093l4.762,0.114l0.396-4.874c-0.025-0.022-0.052-0.047-0.076-0.07l1.248-5.83 c-0.585-0.417-1.149-0.858-1.684-1.335c-3.67-3.283-6.152-7.879-6.551-12.708l0.031-1.109l-4.881-1.711 c-0.606-0.211-1.561-1.333-2.267-2.646c-0.688-1.281-1.141-2.743-0.799-3.719c0.911-2.603,3.762-3.975,6.365-3.063l1.883,0.66 l0.043-1.466c4.938,0.099,11.53-2.036,17.614-6.439c0.639-0.462,1.236-0.924,1.816-1.386l6.608-6.664l7.216,13.76l2.941-1.616 c2.424-1.326,5.459-0.441,6.787,1.977c1.326,2.42,0.439,5.456-1.979,6.783l-2.139,1.174l-2.044,1.122l0.086,1.039 c3.1-0.77,6.318-1.496,9.516-2.161c4.128-0.858,8.204-1.616,11.912-2.243C336.963,281.132,331.521,280.632,327.086,278.198z  M308.691,278.153c-0.821,0.059-1.429,1.192-1.349,2.533c0.08,1.34,0.807,2.382,1.634,2.323c0.815-0.059,1.428-1.19,1.35-2.533 C310.248,279.138,309.52,278.096,308.691,278.153z M292.419,281.919c-0.142-1.335-0.929-2.354-1.75-2.277 c-0.825,0.081-1.371,1.227-1.226,2.558c0.142,1.338,0.93,2.355,1.745,2.279C292.012,284.401,292.559,283.254,292.419,281.919z"></path><path id="color_x5F_3" fill="#336666" d="M363.091,258.694v-7.67c2.461,4.83,5.387,9.899,3.608,10.958 C365.479,262.707,364.309,261.038,363.091,258.694z M372.017,347.141c-0.012,0.16-0.013,0.314-0.028,0.477 c-1.665,17.732-20.433,23.756-14.357,29.355c6.074,5.601,5.179,12.437-2.375,21.538c-4.313,5.194-13.847,10.108-25.854,13.675 c-0.415,7.497-0.664,12.284-0.664,12.284s2.294,3.44,4.719,9.639h45.77V347.04C376.945,347.118,374.521,347.149,372.017,347.141z  M270.834,423.089c0,0-2.462,4.172-5.298,11.02h-54.521V156.561h168.211v86.526c-0.188-0.015-0.372-0.001-0.551,0.079 c-1.919,0.858-0.69,4.168,0.551,7.506v7.465c-2.123-2.3-4.796-19.482-9.359-17.761c-4.505,1.7,6.533,15.796,2.918,17.366 c-3.349,1.451-5.968-15.043-10.313-16.13c-1.595-4.212-6.124-7.254-11.474-7.254H237.386c-6.679,0-12.093,4.738-12.093,10.582 v30.352c0,5.844,5.414,10.582,12.093,10.582h16.042c-1.386,1.965-2.132,4.792-1.875,9.052c0.889,14.749,10.035,13.792-0.579,20.334 s-30.006,12.745-29.188,30.537c0.815,17.792,19.275,24.705,12.94,30.007c-6.335,5.305-5.838,12.229,1.347,21.627 c7.727,10.106,20.11,15.888,34.083,18.548c0.16,4.442,0.249,7.103,0.249,7.103L270.834,423.089z M225.293,212.212 c0,5.844,5.414,10.582,12.093,10.582h113.612c6.68,0,12.093-4.737,12.093-10.582V181.86c0-5.844-5.413-10.582-12.093-10.582H237.386 c-6.679,0-12.093,4.738-12.093,10.582V212.212z M357.962,283.933c4.411,5.107,7.116,10.984,7.634,17.372 c0.596,7.327-1.784,14.46-6.447,20.89c-0.298,0.068-0.732,0.132-1.306,0.181c-0.646,0.064-1.476,0.122-2.431,0.172 c2.604,1.633,5.193,3.402,7.53,5.392c3.866,0.976,7.964,2.15,12.025,3.63c0.03-0.579,0.088-1.161,0.192-1.746 c0.881-4.849-1.667-29.391-1.576-45.793c-1.203-0.193-2.484-0.459-3.879-0.795c-1.81-0.438-4.693-1.915-7.577-3.801 C361.242,281.253,359.786,282.806,357.962,283.933z M295.121,448.827c-5.807,0-10.514,4.707-10.514,10.513 c0,5.807,4.707,10.514,10.514,10.514s10.513-4.707,10.513-10.514C305.634,453.534,300.928,448.827,295.121,448.827z  M137.068,320.391c0-9.263-7.509-16.771-16.772-16.771c-9.263,0-16.771,7.509-16.771,16.771v15.053h33.544V320.391z  M110.405,288.567c0,5.463,4.428,9.892,9.892,9.892c5.463,0,9.891-4.429,9.891-9.892c0-5.463-4.428-9.892-9.891-9.892 C114.833,278.675,110.405,283.104,110.405,288.567z M142.803,324.269v11.175h24.903v-11.175c0-6.878-5.574-12.453-12.452-12.453 C148.378,311.815,142.803,317.391,142.803,324.269z M162.599,300.641c0-4.056-3.288-7.344-7.343-7.344 c-4.057,0-7.346,3.288-7.346,7.344c0,4.056,3.289,7.344,7.346,7.344C159.311,307.984,162.599,304.696,162.599,300.641z  M98.324,324.269c0-6.878-5.575-12.453-12.451-12.453c-6.878,0-12.453,5.575-12.453,12.453v11.175h24.904V324.269z M85.873,307.984 c4.056,0,7.344-3.288,7.344-7.344c0-4.056-3.288-7.344-7.344-7.344c-4.057,0-7.344,3.288-7.344,7.344 C78.529,304.696,81.816,307.984,85.873,307.984z M501.914,398.152c-6.163-6.163-19.035-16.504-35.996-16.504 c-16.311,0-30.255,6.006-39.264,16.91c-2.033,2.462-1.687,6.106,0.775,8.14c1.078,0.892,2.383,1.325,3.68,1.325 c1.666,0,3.317-0.716,4.461-2.1c8.679-10.505,21.293-12.711,30.348-12.711c12.793,0,22.921,8.219,27.82,13.117 c2.256,2.258,5.92,2.258,8.176,0C504.173,404.072,504.173,400.41,501.914,398.152z M465.193,400.863 c-9.033,0-16.797,3.376-21.859,9.504c-2.033,2.463-1.687,6.107,0.775,8.141c1.078,0.891,2.383,1.324,3.68,1.324 c1.665,0,3.318-0.715,4.461-2.099c3.622-4.386,9.038-5.306,12.943-5.306c5.355,0,9.731,3.578,11.864,5.711 c2.259,2.259,5.921,2.259,8.178,0.001c2.259-2.259,2.259-5.92,0.001-8.177C479.369,404.095,472.25,400.863,465.193,400.863z  M464.47,422.687c-3.503,0-6.347,2.841-6.347,6.346s2.844,6.347,6.347,6.347c3.505,0,6.347-2.842,6.347-6.347 S467.975,422.687,464.47,422.687z"></path><path id="color_x5F_2" fill="#fbc02d" d="M362.472,241.612c-0.348-0.087-0.704-0.087-1.075,0.04 c-2.383,0.818-0.535,4.997,1.694,9.372v7.67c-2.164-4.167-4.478-10.478-7.49-9.328c-1.922,0.731-0.171,4.556,2.039,8.857 c2.577,5.01,5.78,10.665,4.534,12.826c-2.083,3.621-7.249-5.519-9.253-2.584c-1.452,2.135,2.632,6.31,7.347,9.699 c0.613,0.441,1.236,0.862,1.86,1.27c-0.886,1.82-2.342,3.373-4.166,4.5c-0.656-0.759-1.349-1.502-2.078-2.227 c-0.226-0.017-0.534-0.013-0.907,0.016c-2.406,0.105-7.791,0.802-14.334,1.908c-3.68-2.498-9.121-2.998-13.557-5.432 c-7.965-4.371-7.117-17.827-7.649-18.72l-0.103-1.238c-0.445-5.41-3.224-10.559-7.339-14.237c-4.11-3.675-9.556-5.881-15.321-5.405 c-15.164,1.254-19.732,15.421-19.136,23.028c-1.938,0.384-4.091,0.705-6.516,0.932c-14.414,1.351-12.324,13.755-2.787,16.771 c-5.464,2.072-11.723,2.169-14.808,6.543h-16.042c-6.679,0-12.093-4.737-12.093-10.582v-30.352c0-5.844,5.414-10.582,12.093-10.582 h113.612C356.348,234.358,360.877,237.4,362.472,241.612z M153.841,385.827c-4.363,0-6.646-3.431-6.646-6.819 c0-1.753,0.585-3.399,1.649-4.636c1.229-1.429,2.957-2.185,4.997-2.185c4.363,0,6.646,3.431,6.646,6.819 c0,1.753-0.585,3.399-1.649,4.636C157.609,385.071,155.881,385.827,153.841,385.827z M157.487,379.007 c0-1.418-0.768-3.819-3.646-3.819c-1.156,0-2.071,0.384-2.722,1.141c-0.587,0.683-0.924,1.659-0.924,2.68 c0,1.418,0.768,3.819,3.646,3.819c1.156,0,2.071-0.384,2.722-1.141C157.15,381.004,157.487,380.027,157.487,379.007z  M433.291,263.894c0,1.752-0.586,3.398-1.649,4.635c-1.229,1.429-2.957,2.185-4.997,2.185c-4.363,0-6.646-3.431-6.646-6.82 c0-1.752,0.586-3.398,1.649-4.635c1.229-1.429,2.957-2.185,4.997-2.185C431.008,257.074,433.291,260.504,433.291,263.894z  M430.291,263.894c0-1.419-0.769-3.82-3.646-3.82c-1.155,0-2.071,0.384-2.722,1.141c-0.588,0.683-0.925,1.659-0.925,2.679 c0,1.419,0.769,3.82,3.646,3.82c1.155,0,2.071-0.384,2.722-1.141C429.954,265.89,430.291,264.914,430.291,263.894z M95.418,355.302 h-3v5.918h-5.917v3h5.917v5.917h3v-5.917h5.916v-3h-5.916V355.302z M163.692,438.111h-3v6.299h-6.298v3h6.298v6.3h3v-6.3h6.299v-3 h-6.299V438.111z M163.692,177.286h-3v6.3h-6.298v3h6.298v6.299h3v-6.299h6.299v-3h-6.299V177.286z M424.99,438.111h-3v6.299h-6.299 v3h6.299v6.3h3v-6.3h6.299v-3h-6.299V438.111z M421.99,192.885h3v-6.299h6.299v-3h-6.299v-6.3h-3v6.3h-6.299v3h6.299V192.885z  M95.418,252.335h-3v5.917h-5.917v3h5.917v5.917h3v-5.917h5.916v-3h-5.916V252.335z M492.798,355.942h-3v5.918h-5.917v3h5.917v5.917 h3v-5.917h5.917v-3h-5.917V355.942z M492.798,281.438v-5.917h-3v5.917h-5.917v3h5.917v5.917h3v-5.917h5.917v-3H492.798z  M165.909,259.675h-22.229l11.114-19.13L165.909,259.675z M148.894,256.675h11.803l-5.901-10.158L148.894,256.675z M429.176,350.928 l11.114,19.13h-22.229L429.176,350.928z M435.077,367.058l-5.901-10.157l-5.901,10.157H435.077z M357.962,283.933 c-0.656-0.759-1.349-1.502-2.078-2.227c-0.226-0.017-0.534-0.013-0.907,0.016c-2.406,0.105-7.791,0.802-14.334,1.908 c-3.708,0.627-7.784,1.384-11.912,2.243c-3.197,0.665-6.416,1.391-9.516,2.161c-7.896,1.961-14.983,4.211-18.723,6.505 c-1.433,3.938-2.055,8.007-1.729,12.162c0.285,3.413,1.199,6.675,2.652,9.762v0.001c0.313,0.659,0.641,1.314,1.002,1.957 c1.444,0.593,3.311,1.111,5.475,1.564l-0.466,19.511c0.229-0.18,0.439-0.322,0.605-0.396c1.557-0.67,3.797,0.738,5.985,3.443 l0.514-21.468c1.806,0.232,3.705,0.437,5.661,0.615c3.26,0.298,6.676,0.524,10.078,0.689c1.116,0.055,2.228,0.101,3.335,0.143 c1.443-0.013,2.74-0.072,2.746-0.072h0.001c-0.027,0.038-0.056,0.101-0.084,0.162c2.114,0.062,4.177,0.103,6.15,0.123 c5.276,0.057,9.883-0.024,12.993-0.188c0.955-0.05,1.785-0.107,2.431-0.172c0.573-0.049,1.008-0.112,1.306-0.181 c4.663-6.43,7.043-13.563,6.447-20.89C365.078,294.917,362.373,289.04,357.962,283.933z M237.386,222.793h113.612 c6.68,0,12.093-4.737,12.093-10.582V181.86c0-5.844-5.413-10.582-12.093-10.582H237.386c-6.679,0-12.093,4.738-12.093,10.582v30.352 C225.293,218.056,230.707,222.793,237.386,222.793z"></path><path id="color_x5F_1" fill="#0984e3" d="M395.717,124.591H194.523c-4.379,0-7.929,3.55-7.929,7.929v341.045 c0,4.379,3.55,7.929,7.929,7.929h201.193c4.379,0,7.93-3.55,7.93-7.929V132.52C403.646,128.141,400.096,124.591,395.717,124.591z  M295.121,469.854c-5.807,0-10.514-4.707-10.514-10.514c0-5.806,4.707-10.513,10.514-10.513s10.513,4.707,10.513,10.513 C305.634,465.146,300.928,469.854,295.121,469.854z M402.052,334.704c-0.702,3.872-2.946,7.064-5.966,9.071 c-1.326,1.976-8.047,2.963-16.859,3.265v87.068h-45.77h-67.921h-54.521V156.561h168.211v86.526 c2.188,0.176,4.878,6.591,6.838,13.919c1.881,7.036,2.766,14.62,1.168,18.916c-0.659,1.77-1.374,3.203-2.17,4.364 C393.303,297.606,403.043,329.242,402.052,334.704z M379.227,258.136v-7.465c1.241,3.337,2.494,6.702,0.628,7.674 C379.65,258.452,379.441,258.369,379.227,258.136z"></path></svg>